<svg width="28" height="28" viewBox="0 0 28 28" fill="none" xmlns="http://www.w3.org/2000/svg">
    <path d="M14 0.666672C11.3629 0.666672 8.78505 1.44866 6.59239 2.91374C4.39974 4.37883 2.69077 6.46121 1.6816 8.89756C0.672434 11.3339 0.408389 14.0148 0.922859 16.6012C1.43733 19.1876 2.70721 21.5634 4.57191 23.4281C6.43661 25.2928 8.81238 26.5627 11.3988 27.0771C13.9852 27.5916 16.6661 27.3276 19.1024 26.3184C21.5388 25.3092 23.6212 23.6003 25.0863 21.4076C26.5513 19.215 27.3333 16.6371 27.3333 14C27.3333 12.249 26.9885 10.5152 26.3184 8.89756C25.6483 7.27988 24.6662 5.81003 23.4281 4.57191C22.19 3.3338 20.7201 2.35167 19.1024 1.68161C17.4848 1.01155 15.751 0.666672 14 0.666672ZM14 24.6667C11.171 24.6667 8.45791 23.5429 6.45752 21.5425C4.45714 19.5421 3.33333 16.829 3.33333 14C3.33038 11.6311 4.12402 9.33007 5.58666 7.46667L20.5333 22.4133C18.6699 23.876 16.3689 24.6696 14 24.6667ZM22.4133 20.5333L7.46666 5.58667C9.33006 4.12403 11.6311 3.33039 14 3.33334C16.829 3.33334 19.5421 4.45714 21.5425 6.45753C23.5429 8.45792 24.6667 11.171 24.6667 14C24.6696 16.3689 23.876 18.6699 22.4133 20.5333Z" fill="#FFE8E8"/>
</svg>