<svg width="28" height="28" viewBox="0 0 28 28" fill="none" xmlns="http://www.w3.org/2000/svg">
    <path d="M17.6267 9.72001L11.9067 15.4533L9.70666 13.2533C9.58713 13.1138 9.44004 13.0004 9.27462 12.9204C9.1092 12.8403 8.92903 12.7954 8.7454 12.7883C8.56177 12.7812 8.37866 12.8121 8.20756 12.8792C8.03646 12.9462 7.88107 13.0479 7.75113 13.1778C7.62119 13.3077 7.51951 13.4631 7.45248 13.6342C7.38545 13.8053 7.35451 13.9885 7.3616 14.1721C7.36869 14.3557 7.41366 14.5359 7.4937 14.7013C7.57373 14.8667 7.68709 15.0138 7.82666 15.1333L10.96 18.28C11.0846 18.4036 11.2323 18.5013 11.3948 18.5677C11.5572 18.6341 11.7312 18.6677 11.9067 18.6667C12.2564 18.6652 12.5916 18.5263 12.84 18.28L19.5067 11.6133C19.6316 11.4894 19.7308 11.3419 19.7985 11.1794C19.8662 11.017 19.9011 10.8427 19.9011 10.6667C19.9011 10.4907 19.8662 10.3164 19.7985 10.1539C19.7308 9.99142 19.6316 9.84396 19.5067 9.72001C19.2568 9.47167 18.9189 9.33228 18.5667 9.33228C18.2144 9.33228 17.8765 9.47167 17.6267 9.72001ZM14 0.666672C11.3629 0.666672 8.78505 1.44866 6.59239 2.91374C4.39974 4.37883 2.69077 6.46121 1.6816 8.89756C0.672434 11.3339 0.408389 14.0148 0.922859 16.6012C1.43733 19.1876 2.70721 21.5634 4.57191 23.4281C6.43661 25.2928 8.81238 26.5627 11.3988 27.0771C13.9852 27.5916 16.6661 27.3276 19.1024 26.3184C21.5388 25.3092 23.6212 23.6003 25.0863 21.4076C26.5513 19.215 27.3333 16.6371 27.3333 14C27.3333 12.249 26.9885 10.5152 26.3184 8.89756C25.6483 7.27988 24.6662 5.81003 23.4281 4.57191C22.19 3.3338 20.7201 2.35167 19.1024 1.68161C17.4848 1.01155 15.751 0.666672 14 0.666672ZM14 24.6667C11.8903 24.6667 9.82804 24.0411 8.07391 22.869C6.31979 21.6969 4.95262 20.031 4.14528 18.082C3.33795 16.1329 3.12671 13.9882 3.53829 11.919C3.94986 9.84991 4.96576 7.94929 6.45752 6.45753C7.94928 4.96577 9.8499 3.94987 11.919 3.5383C13.9882 3.12672 16.1329 3.33796 18.082 4.14529C20.031 4.95263 21.6969 6.3198 22.869 8.07392C24.0411 9.82805 24.6667 11.8903 24.6667 14C24.6667 16.829 23.5429 19.5421 21.5425 21.5425C19.5421 23.5429 16.829 24.6667 14 24.6667Z" fill="#0F552C"/>
</svg>