<svg width="28" height="28" viewBox="0 0 28 28" fill="none" xmlns="http://www.w3.org/2000/svg">
    <path d="M14 12.6667C13.6464 12.6667 13.3072 12.8071 13.0572 13.0572C12.8071 13.3072 12.6667 13.6464 12.6667 14V19.3333C12.6667 19.687 12.8071 20.0261 13.0572 20.2761C13.3072 20.5262 13.6464 20.6667 14 20.6667C14.3536 20.6667 14.6928 20.5262 14.9428 20.2761C15.1929 20.0261 15.3333 19.687 15.3333 19.3333V14C15.3333 13.6464 15.1929 13.3072 14.9428 13.0572C14.6928 12.8071 14.3536 12.6667 14 12.6667ZM14.5067 7.44C14.182 7.30664 13.8179 7.30664 13.4933 7.44C13.3297 7.50346 13.1801 7.59861 13.0533 7.72C12.9356 7.8496 12.8409 7.99842 12.7733 8.16C12.6987 8.31824 12.6622 8.49177 12.6667 8.66667C12.6656 8.84214 12.6993 9.01609 12.7656 9.17854C12.832 9.34099 12.9298 9.48875 13.0533 9.61333C13.1829 9.73111 13.3317 9.82581 13.4933 9.89334C13.6953 9.97632 13.9146 10.0084 14.1319 9.98682C14.3492 9.96521 14.5579 9.89056 14.7396 9.76943C14.9213 9.64829 15.0705 9.48438 15.174 9.2921C15.2775 9.09981 15.3322 8.88505 15.3333 8.66667C15.3284 8.31365 15.1903 7.97551 14.9467 7.72C14.8199 7.59861 14.6703 7.50346 14.5067 7.44ZM14 0.666668C11.3629 0.666668 8.78505 1.44865 6.59239 2.91374C4.39974 4.37883 2.69077 6.46121 1.6816 8.89756C0.672434 11.3339 0.408389 14.0148 0.922859 16.6012C1.43733 19.1876 2.70721 21.5634 4.57191 23.4281C6.43661 25.2928 8.81238 26.5627 11.3988 27.0771C13.9852 27.5916 16.6661 27.3276 19.1024 26.3184C21.5388 25.3092 23.6212 23.6003 25.0863 21.4076C26.5513 19.2149 27.3333 16.6371 27.3333 14C27.3333 12.249 26.9885 10.5152 26.3184 8.89756C25.6483 7.27988 24.6662 5.81003 23.4281 4.57191C22.19 3.3338 20.7201 2.35167 19.1024 1.68161C17.4848 1.01154 15.751 0.666668 14 0.666668ZM14 24.6667C11.8903 24.6667 9.82804 24.0411 8.07391 22.869C6.31979 21.6969 4.95262 20.031 4.14528 18.082C3.33795 16.1329 3.12671 13.9882 3.53829 11.919C3.94986 9.84991 4.96576 7.94929 6.45752 6.45753C7.94928 4.96577 9.8499 3.94987 11.919 3.53829C13.9882 3.12672 16.1329 3.33795 18.082 4.14529C20.031 4.95262 21.6969 6.31979 22.869 8.07392C24.0411 9.82804 24.6667 11.8903 24.6667 14C24.6667 16.829 23.5429 19.5421 21.5425 21.5425C19.5421 23.5429 16.829 24.6667 14 24.6667Z" fill="#6E5404"/>
</svg>